<?xml version="1.0" encoding="utf-8"?>
<svg width="48px" height="48px" viewBox="0 0 48 48" xmlns="http://www.w3.org/2000/svg">
  <g id="svgGroup" stroke-linecap="round" fill-rule="evenodd" font-size="30%" stroke="#000000" stroke-width="0.75mm" fill="white" style="stroke: rgb(0, 0, 0); stroke-width: 0.75mm; fill: white; transform-origin: 19.82px 15.929px;" transform="matrix(0.869201, 0, 0, 0.861747, 4.810454, 7.922932)">
    <ellipse style="stroke-width: 0px; fill: rgb(102, 80, 72);" cx="19.095" cy="16.101" rx="25.311" ry="25.53"/>
    <path d="M 6.439 30.288 L 6.439 3.177 C 6.439 2.655 6.54 2.356 6.745 2.284 C 6.948 2.213 7.319 2.176 7.856 2.176 L 17.078 2.176 C 19.615 2.176 21.92 2.298 23.995 2.542 C 26.068 2.786 27.855 3.278 29.355 4.018 C 30.856 4.758 32.013 5.837 32.828 7.254 C 33.643 8.672 34.051 10.562 34.051 12.927 C 34.051 15.383 33.601 17.293 32.703 18.656 C 31.804 20.02 30.568 21.004 28.995 21.608 C 27.42 22.213 25.615 22.583 23.578 22.719 C 21.54 22.854 19.374 22.922 17.078 22.922 L 8.8 22.922 L 8.8 30.288 C 8.8 30.812 8.731 31.286 8.592 31.71 C 8.453 32.134 8.162 32.347 7.717 32.347 C 7.179 32.347 6.832 32.143 6.675 31.737 C 6.517 31.33 6.439 30.848 6.439 30.288 Z M 8.8 3.964 L 8.8 21.242 L 17.078 21.242 C 20.448 21.242 23.211 21.075 25.37 20.742 C 27.527 20.408 29.12 19.654 30.147 18.481 C 31.175 17.306 31.689 15.456 31.689 12.927 C 31.689 10.419 31.17 8.523 30.133 7.241 C 29.096 5.959 27.499 5.093 25.342 4.641 C 23.184 4.19 20.429 3.964 17.078 3.964 L 8.8 3.964 Z" style="stroke: rgb(255, 255, 255);stroke-width: 2px;"/>
  </g>
</svg>
